# xmcd CD database file
#
# Track frame offsets:
#	150
#	22426
#	42994
#	60879
#	82872
#	107530
#	128952
#	153104
#	173919
#	194712
#	216508
#	239194
#	279287
#
# Disc length: 4034 seconds
#
# Revision: 0
# Processed by: cddbd v1.5PL3 Copyright (c) Steve Scherf et al.
# Submitted via: CDex 1.50
#
DISCID=b90fc00d
DTITLE=BRAZEN ABBOT - Guilty As Sin
DYEAR=2003
DGENRE=Hard Rock
TTITLE0=One Life To Live
TTITLE1=Eyes On The Horizon
TTITLE2=I'll Be Free
TTITLE3=Slip Away
TTITLE4=Mr. Earthman
TTITLE5=Like Jonah
TTITLE6=Bring The Colors Home
TTITLE7=Fool's Confession
TTITLE8=Supernatural
TTITLE9=Eve
TTITLE10=A Whole Lotta Woman
TTITLE11=Guilty As Sin
TTITLE12=Love Is On Our Side (Acoustic Version)
EXTD=YEAR: 2003
EXTT0=
EXTT1=
EXTT2=
EXTT3=
EXTT4=
EXTT5=
EXTT6=
EXTT7=
EXTT8=
EXTT9=
EXTT10=
EXTT11=
EXTT12=
PLAYORDER=
